<?xml version="1.0" encoding="UTF-8" standalone="no"?>
<!-- Created with Inkscape (http://www.inkscape.org/) -->

<svg
   xmlns:dc="http://purl.org/dc/elements/1.1/"
   xmlns:cc="http://creativecommons.org/ns#"
   xmlns:rdf="http://www.w3.org/1999/02/22-rdf-syntax-ns#"
   xmlns:svg="http://www.w3.org/2000/svg"
   xmlns="http://www.w3.org/2000/svg"
   xmlns:sodipodi="http://sodipodi.sourceforge.net/DTD/sodipodi-0.dtd"
   xmlns:inkscape="http://www.inkscape.org/namespaces/inkscape"
   width="105"
   height="105"
   id="svg2"
   version="1.1"
   inkscape:version="0.48.5 r10040"
   sodipodi:docname="metacran-logo.pdf"
   inkscape:export-filename="/Users/gaborcsardi/works/metacran/metacran-logo.png"
   inkscape:export-xdpi="90"
   inkscape:export-ydpi="90">
  <defs
     id="defs4" />
  <sodipodi:namedview
     id="base"
     pagecolor="#ffffff"
     bordercolor="#666666"
     borderopacity="1.0"
     inkscape:pageopacity="0.0"
     inkscape:pageshadow="2"
     inkscape:zoom="7.6095238"
     inkscape:cx="52.5"
     inkscape:cy="52.5"
     inkscape:document-units="px"
     inkscape:current-layer="layer1"
     showgrid="false"
     inkscape:snap-global="false"
     inkscape:window-width="1676"
     inkscape:window-height="1005"
     inkscape:window-x="4"
     inkscape:window-y="0"
     inkscape:window-maximized="1"
     fit-margin-top="0"
     fit-margin-left="0"
     fit-margin-right="0"
     fit-margin-bottom="0">
    <inkscape:grid
       type="xygrid"
       id="grid3184"
       empspacing="5"
       visible="true"
       enabled="true"
       snapvisiblegridlinesonly="true"
       originx="-296.08408px"
       originy="-597.06456px" />
  </sodipodi:namedview>
  <metadata
     id="metadata7">
    <rdf:RDF>
      <cc:Work
         rdf:about="">
        <dc:format>image/svg+xml</dc:format>
        <dc:type
           rdf:resource="http://purl.org/dc/dcmitype/StillImage" />
        <dc:title></dc:title>
      </cc:Work>
    </rdf:RDF>
  </metadata>
  <g
     inkscape:label="Layer 1"
     inkscape:groupmode="layer"
     id="layer1"
     transform="translate(-296.08408,-350.29762)">
    <g
       id="g3956"
       transform="translate(1.3999598,-19.895213)">
      <path
         d="m 301.87289,419.50504 0,-26.01563 5.11524,0 7.1543,20.12695 7.34765,-20.12695 4.57031,0 0,26.01563 -3.44531,0 0,-21.14649 -7.10156,19.40625 -3.56836,0 -6.89063,-19.47656 0,21.2168 -3.18164,0"
         style="font-size:36px;font-style:normal;font-variant:normal;font-weight:normal;font-stretch:normal;text-align:center;line-height:83.99999738%;letter-spacing:-1px;word-spacing:0px;writing-mode:lr-tb;text-anchor:middle;fill:#666666;fill-opacity:1;stroke:none;font-family:Luxi Sans;-inkscape-font-specification:Luxi Sans"
         id="path3004"
         inkscape:connector-curvature="0" />
      <path
         d="m 329.35336,419.50504 0,-26.01563 18.86133,0 0,2.75977 -15.16992,0 0,8.34961 13.42969,0 0,2.7246 -13.42969,0 0,9.42188 15.94336,0 0,2.75977 -19.63477,0"
         style="font-size:36px;font-style:normal;font-variant:normal;font-weight:normal;font-stretch:normal;text-align:center;line-height:83.99999738%;letter-spacing:-1px;word-spacing:0px;writing-mode:lr-tb;text-anchor:middle;fill:#666666;fill-opacity:1;stroke:none;font-family:Luxi Sans;-inkscape-font-specification:Luxi Sans"
         id="path3006"
         inkscape:connector-curvature="0" />
      <path
         d="m 360.18344,419.50504 0,-23.25586 -8.78906,0 0,-2.75977 21.26953,0 0,2.75977 -8.78906,0 0,23.25586 -3.69141,0"
         style="font-size:36px;font-style:normal;font-variant:normal;font-weight:normal;font-stretch:normal;text-align:center;line-height:83.99999738%;letter-spacing:-1px;word-spacing:0px;writing-mode:lr-tb;text-anchor:middle;fill:#666666;fill-opacity:1;stroke:none;font-family:Luxi Sans;-inkscape-font-specification:Luxi Sans"
         id="path3008"
         inkscape:connector-curvature="0" />
      <path
         d="m 371.25571,419.50504 9.8789,-26.01563 3.65625,0 9.72071,26.01563 -3.97266,0 -2.70703,-7.20704 -10.44141,0 -2.70703,7.20704 -3.42773,0 m 7.18945,-9.94922 8.36719,0 -4.16602,-11.14453 -4.20117,11.14453"
         style="font-size:36px;font-style:normal;font-variant:normal;font-weight:normal;font-stretch:normal;text-align:center;line-height:83.99999738%;letter-spacing:-1px;word-spacing:0px;writing-mode:lr-tb;text-anchor:middle;fill:#666666;fill-opacity:1;stroke:none;font-family:Luxi Sans;-inkscape-font-specification:Luxi Sans"
         id="path3010"
         inkscape:connector-curvature="0" />
      <path
         sodipodi:nodetypes="cscsccccccscscc"
         d="m 323.42522,449.09339 c -2.85495,0.89589 -5.55471,1.38666 -8.61328,1.38666 -4.27736,0 -7.52931,-1.16016 -9.75586,-3.48047 -2.23829,-2.32031 -3.35743,-5.70116 -3.35742,-10.14258 -1e-5,-4.42967 1.13671,-7.82224 3.41015,-10.17773 2.27343,-2.34373 5.56054,-3.5156 9.86133,-3.51563 2.40233,3e-5 7.20896,0.38089 10.41992,1.14258 l 0,3.46289 c -3.64455,-1.23044 -8.51564,-1.84568 -10.61328,-1.8457 -2.94142,2e-5 -5.19727,0.93752 -6.76758,2.8125 -1.57032,1.8633 -2.35547,4.55861 -2.35547,8.08594 0,3.44532 0.83789,6.09961 2.51368,7.96289 1.67577,1.875 4.03123,2.8125 7.0664,2.8125 2.54295,0 7.27342,-0.75586 10.19141,-2.26758 l 0,3.16406"
         style="font-size:36px;font-style:normal;font-variant:normal;font-weight:normal;font-stretch:normal;text-align:start;line-height:83.99999738%;letter-spacing:0px;word-spacing:0px;writing-mode:lr-tb;text-anchor:start;fill:#666666;fill-opacity:1;stroke:none;font-family:Kefa;-inkscape-font-specification:Luxi Sans"
         id="path3012"
         inkscape:connector-curvature="0" />
      <path
         sodipodi:nodetypes="ccsccccccccccscccccc"
         d="m 328.87713,451.89626 0,-30.14883 13.1392,0 c 6.12482,3e-5 9.18723,2.49207 9.18723,7.4761 -2e-5,2.41736 -0.71979,4.42727 -2.15929,6.02976 -0.85557,0.93708 -2.08465,1.79265 -3.68713,2.56674 l 6.08395,14.07623 -7.0483,0 -4.69873,-12.32435 -4.90937,0 0,12.32435 -5.90756,0 m 5.90756,-16.45963 3.30009,0 c 2.59386,2e-5 4.4476,-0.60431 5.56121,-1.813 0.84197,-0.90988 1.26299,-2.09818 1.263,-3.5649 -2e-5,-1.53458 -0.58397,-2.6346 -1.7519,-3.30007 -1.00498,-0.58394 -2.4513,-0.87592 -4.33899,-0.87595 l -4.03343,0 0,9.55392"
         style="font-size:36px;font-style:normal;font-variant:normal;font-weight:normal;font-stretch:normal;text-align:start;line-height:83.99999738%;letter-spacing:0px;word-spacing:0px;writing-mode:lr-tb;text-anchor:start;fill:#ff0000;fill-opacity:1;stroke:none;font-family:Kefa;-inkscape-font-specification:Kefa"
         id="path3014"
         inkscape:connector-curvature="0" />
      <path
         d="m 350.40121,449.82966 9.8789,-26.01563 3.65625,0 9.72071,26.01563 -3.97266,0 -2.70703,-7.20703 -10.44141,0 -2.70703,7.20703 -3.42773,0 m 7.18945,-9.94922 8.36719,0 -4.16602,-11.14453 -4.20117,11.14453"
         style="font-size:36px;font-style:normal;font-variant:normal;font-weight:normal;font-stretch:normal;text-align:start;line-height:83.99999738%;letter-spacing:0px;word-spacing:0px;writing-mode:lr-tb;text-anchor:start;fill:#666666;fill-opacity:1;stroke:none;font-family:Kefa;-inkscape-font-specification:Luxi Sans"
         id="path3016"
         inkscape:connector-curvature="0" />
      <path
         d="m 374.7938,449.82966 0,-26.01563 3.60351,0 13.41211,20.0918 0,-20.0918 3.16407,0 0,26.01563 -3.6211,0 -13.39453,-20.0918 0,20.0918 -3.16406,0"
         style="font-size:36px;font-style:normal;font-variant:normal;font-weight:normal;font-stretch:normal;text-align:start;line-height:83.99999738%;letter-spacing:0px;word-spacing:0px;writing-mode:lr-tb;text-anchor:start;fill:#666666;fill-opacity:1;stroke:none;font-family:Kefa;-inkscape-font-specification:Luxi Sans"
         id="path3018"
         inkscape:connector-curvature="0" />
    </g>
    <rect
       style="fill:none;stroke:#b4ac9f;stroke-width:0.1;stroke-miterlimit:4;stroke-opacity:1;stroke-dasharray:none;stroke-dashoffset:0"
       id="rect3954"
       width="102.07509"
       height="65.084579"
       x="297.54654"
       y="370.25534"
       ry="11.493073" />
  </g>
</svg>
